# xmcd
#
# Track frame offsets:
# 150
# 9593
# 21803
# 35665
# 48831
# 65569
# 75955
# 89950
# 103261
# 118539
# 136045
# 152780
# 168975
# 181918
# 195243
# 207814
# 219370
# 236427
# 251834
# 266818
# 283062
# 297645
#
# Disc length: 4142 seconds
#
#
# Revision: 0
# Processed by: cddbd v1.4PL0 Copyright (c) Steve Scherf et al.
# Submitted via: FreeRIP 2.10 
#
DISCID=3c102c16
DTITLE=Barbara Mandrell  - Ultimate Collection 
DYEAR=1900
DGENRE=Country
TTITLE0=Tonight My Babys Coming Home
TTITLE1=Midnight Oil
TTITLE2=Standing Room Only 
TTITLE3=Married But Not To Each Other 
TTITLE4=Woman To Woman
TTITLE5=Sleeping Single In A Double Bed
TTITLE6=I Don't Wanna Be Right 
TTITLE7=Fooled By A Feeling 
TTITLE8=Years
TTITLE9=You Can Eat Crackers In My Bed Anytime
TTITLE10=We're The Best Of Strangers
TTITLE11=I Was Country When Country Was'nt Cool
TTITLE12=Till Your Gone
TTITLE13=In Times Like These 
TTITLE14=One Of A Kind Pair Of Fools
TTITLE15=Happy Birthday Dear Heartache
TTITLE16=Only A Lonely Heart Knows 
TTITLE17=Theres No Love In Tennessee 
TTITLE18=Angel In My Arms 
TTITLE19=fast Lanes Country Roads 
TTITLE20=No One Mends A Broken Heart Like You 
TTITLE21=I Wish I Could fall In Love Today 
EXTD=
EXTT0=
EXTT1=
EXTT2=
EXTT3=
EXTT4=
EXTT5=
EXTT6=
EXTT7=
EXTT8=
EXTT9=
EXTT10=
EXTT11=
EXTT12=
EXTT13=
EXTT14=
EXTT15=
EXTT16=
EXTT17=
EXTT18=
EXTT19=
EXTT20=
EXTT21=
PLAYORDER=
